<svg xmlns="http://www.w3.org/2000/svg" viewBox="0 0 512 512">
  <defs>
    <linearGradient id="bg" x1="0" y1="0" x2="512" y2="512" gradientUnits="userSpaceOnUse">
      <stop offset="0" stop-color="#184EA8" />
      <stop offset="1" stop-color="#16A6D8" />
    </linearGradient>
    <radialGradient id="glow" cx="0" cy="0" r="1" gradientUnits="userSpaceOnUse" gradientTransform="translate(256 210) rotate(90) scale(170 170)">
      <stop offset="0" stop-color="#9EE8FF" stop-opacity=".35" />
      <stop offset="1" stop-color="#9EE8FF" stop-opacity="0" />
    </radialGradient>
  </defs>
  <rect x="0" y="0" width="512" height="512" rx="112" fill="url(#bg)" />
  <circle cx="256" cy="210" r="170" fill="url(#glow)" />
  <rect x="18" y="18" width="476" height="476" rx="106" fill="none" stroke="#D7F6FF" stroke-opacity=".2" stroke-width="2" />
  <path d="M256 126C224 146 182 160 156 170V260C156 332 201 386 256 410C311 386 356 332 356 260V170C330 160 288 146 256 126Z"
        fill="#D3F5FF" fill-opacity=".16" stroke="#DDF8FF" stroke-opacity=".72" stroke-width="4" />
  <path d="M142 256H204L228 226L252 286L279 238L297 256H370"
        stroke="#8FE2FF" stroke-width="12" stroke-linecap="round" stroke-linejoin="round" />
  <circle cx="142" cy="256" r="8" fill="#E9FDFF" />
  <circle cx="370" cy="256" r="8" fill="#E9FDFF" />
</svg>
